PathFileType	4	(X/Y/Z)	SUBJ24_3_walk_RCNL2025.trc
DataRate	CameraRate	NumFrames	NumMarkers	Units	OrigDataRate	OrigDataStartFrame	OrigNumFrames
100	100	8	25	mm	100	254	406
Frame#	Time	R_Shoulder			L_Shoulder			C7			J_Notch			R_Elbow			L_Elbow			R_Wrist			L_Wrist			R_Asis			L_Asis			Sacral			Thoracic			Sternum			R_Thigh_Lateral			R_Knee_Lateral			R_Shank_Lateral			R_Ankle_Lateral			R_Heel			R_Toe			L_Thigh_Lateral			L_Knee_Lateral			L_Shank_Lateral			L_Ankle_Lateral			L_Heel			L_Toe		
		X1	Y1	Z1	X2	Y2	Z2	X3	Y3	Z3	X4	Y4	Z4	X5	Y5	Z5	X6	Y6	Z6	X7	Y7	Z7	X8	Y8	Z8	X9	Y9	Z9	X10	Y10	Z10	X11	Y11	Z11	X12	Y12	Z12	X13	Y13	Z13	X14	Y14	Z14	X15	Y15	Z15	X16	Y16	Z16	X17	Y17	Z17	X18	Y18	Z18	X19	Y19	Z19	X20	Y20	Z20	X21	Y21	Z21	X22	Y22	Z22	X23	Y23	Z23	X24	Y24	Z24	X25	Y25	Z25
254	2.53000000	-309.964722	1316.825317	369.344604	-354.117584	1324.276367	26.732540	-416.000671	1381.524780	207.087082	-281.183533	1293.541748	192.408951	-315.151001	1033.275757	465.884247	-399.303467	1031.630127	-52.549519	-212.215431	819.207092	452.406342	-333.277359	805.464020	-55.622417	-291.064636	871.663208	360.817688	-300.166107	883.732605	33.459839	-470.368927	918.572144	211.334137	-474.536041	1111.661011	212.025345	-201.858673	1079.976562	182.558212	-359.517212	561.794128	405.855743	-295.308319	428.930084	345.078888	-413.325958	349.100891	390.547821	-600.903137	209.428329	316.969543	-637.695801	233.738495	253.302536	-569.785522	80.935410	312.067322	-292.467957	570.850708	20.161016	-253.211853	445.483734	79.861801	-263.598358	288.563538	34.035610	-281.613312	63.427338	103.119698	-330.837036	37.637920	158.218063	-164.021286	45.611858	135.511261
255	2.54000000	-300.000275	1318.064087	368.992950	-342.816284	1326.177368	26.151423	-405.165100	1383.309082	206.360779	-270.504059	1295.087646	191.913239	-306.960480	1034.399658	464.976898	-383.391418	1033.494141	-54.921535	-207.594879	818.606781	452.292145	-310.396698	809.271515	-56.587064	-280.486847	874.014465	360.210632	-290.260712	884.791321	32.659039	-460.083435	920.410461	210.307449	-464.076904	1113.341919	210.314651	-191.377060	1081.436646	182.300797	-340.816681	563.444092	405.296448	-272.575623	431.899078	344.638702	-389.322479	350.643402	389.355408	-575.683350	209.649231	315.024048	-613.766113	232.223007	251.207809	-539.863342	83.123924	311.809906	-286.590851	571.501221	19.744898	-250.124603	445.420868	79.755638	-261.822784	288.460999	33.950832	-281.448639	63.459053	103.211624	-330.839264	37.716778	158.239594	-164.010529	45.540707	135.623688
256	2.55000000	-290.101593	1319.157227	368.630341	-331.558411	1327.995361	25.580154	-394.358398	1384.977173	205.646729	-259.875824	1296.477417	191.458832	-299.092743	1035.412476	464.165344	-367.453094	1035.373413	-57.290611	-202.957733	818.138367	452.198059	-287.539474	813.347443	-57.430794	-269.921844	876.318787	359.663818	-280.482178	885.729675	31.904396	-449.861389	922.098938	209.467926	-453.690674	1114.913574	208.616760	-180.998413	1082.735474	182.103455	-322.359863	565.008423	404.618713	-250.141724	434.984344	344.047821	-365.030670	351.422424	388.168274	-549.609436	208.292984	313.167969	-589.138550	229.003052	249.303238	-508.440674	84.125763	311.270508	-280.696747	572.129517	19.431889	-247.110855	445.338684	79.716148	-260.097046	288.370422	33.905815	-281.244812	63.493999	103.324265	-330.829620	37.796574	158.274307	-163.994781	45.462971	135.734711
257	2.56000000	-280.251862	1320.114990	368.239777	-320.335541	1329.719727	25.012850	-383.580719	1386.503662	204.928680	-249.287186	1297.694580	191.041580	-291.528015	1036.322876	463.432190	-351.508728	1037.248779	-59.641575	-198.299164	817.780914	452.113235	-264.750458	817.674103	-58.149010	-259.344971	878.525757	359.150909	-270.803467	886.548401	31.189108	-439.683411	923.618713	208.830658	-443.356262	1116.356445	206.954681	-170.725723	1083.869263	181.940170	-304.213867	566.445007	403.834320	-228.102509	438.134064	343.326324	-340.599609	351.494415	387.006012	-522.733582	205.431900	311.418976	-563.808777	224.161636	247.613632	-475.735626	84.030029	310.449890	-274.849762	572.688782	19.228966	-244.140976	445.230408	79.727226	-258.395905	288.279938	33.886383	-281.002991	63.531063	103.458015	-330.812256	37.873489	158.320038	-163.975388	45.383305	135.838638
258	2.57000000	-270.444336	1320.941528	367.819641	-309.133179	1331.330933	24.450279	-372.833771	1387.864990	204.193954	-238.727249	1298.725830	190.661072	-284.240021	1037.134155	462.766357	-335.585968	1039.094116	-61.958694	-193.611328	817.507507	452.028625	-242.071152	822.220886	-58.740232	-248.719223	880.588867	358.645050	-261.210663	887.240479	30.514109	-429.531219	924.956482	208.400848	-433.055206	1117.654175	205.345596	-160.553802	1084.832764	181.794312	-286.450165	567.744873	402.962189	-206.554977	441.307068	342.497467	-316.190369	350.993530	385.863678	-495.090302	201.167145	309.779144	-537.748169	217.783691	246.130249	-441.912323	82.973915	309.394165	-269.097992	573.140442	19.131281	-241.195663	445.094177	79.777084	-256.694794	288.180115	33.885807	-280.728546	63.570667	103.613571	-330.791992	37.945026	158.373108	-163.952591	45.305172	135.934326
259	2.58000000	-260.678253	1321.634033	367.380280	-297.935333	1332.801025	23.900162	-362.118195	1389.041870	203.434753	-228.187103	1299.563110	190.317841	-277.197388	1037.844116	462.162720	-319.711700	1040.876831	-64.225151	-188.882736	817.286774	451.937744	-219.540382	826.947052	-59.206120	-238.003189	882.468140	358.126038	-251.699036	887.796143	29.880125	-419.390564	926.103943	208.170639	-422.776123	1118.796143	203.804459	-150.469086	1085.620605	181.658173	-269.117615	568.910400	402.031708	-185.591187	444.466705	341.582458	-291.932434	350.065918	384.731262	-466.697052	195.620514	308.242523	-510.902069	209.963913	244.820175	-407.104218	81.116554	308.184601	-263.472870	573.462036	19.127138	-238.263458	444.933258	79.855911	-254.981842	288.067352	33.902897	-280.434601	63.612774	103.791534	-330.773346	38.011185	158.429321	-163.925430	45.231579	136.023376
260	2.59000000	-250.953506	1322.184692	366.938110	-286.727478	1334.097778	23.374868	-351.432129	1390.020874	202.649597	-217.660431	1300.203369	190.010651	-270.360840	1038.446533	461.619354	-303.908020	1042.561646	-66.423599	-184.099335	817.085449	451.836166	-197.195030	831.806061	-59.551411	-227.162323	884.130737	357.583649	-242.267136	888.203857	29.285881	-409.252472	927.056213	208.118683	-412.515503	1119.776001	202.346252	-140.452194	1086.227783	181.530899	-252.223434	569.950256	401.085968	-165.292389	447.571014	340.594971	-267.907837	348.806854	383.602264	-437.558105	188.929871	306.804596	-483.199554	200.818497	243.642914	-371.430389	78.620659	306.919189	-257.997986	573.649719	19.204369	-235.334259	444.754272	79.954521	-253.262070	287.944763	33.937454	-280.147339	63.655205	103.990913	-330.757965	38.074783	158.485168	-163.892426	45.165459	136.108551
261	2.60000000	-241.265747	1322.582520	366.510803	-275.498596	1335.189819	22.887083	-340.771088	1390.795166	201.844269	-207.143463	1300.647461	189.736099	-263.681519	1038.933228	461.135956	-288.191925	1044.115845	-68.537056	-179.245842	816.870941	451.720795	-175.069672	836.748108	-59.783976	-216.183182	885.550232	357.015106	-232.912811	888.450012	28.729939	-399.112335	927.810913	208.214355	-402.274750	1120.589478	200.986649	-130.481110	1086.650024	181.413971	-235.734528	570.885071	400.180817	-145.723495	450.568237	339.541046	-244.165024	347.252747	382.475037	-407.669708	181.248062	305.469910	-454.565887	190.492828	242.564285	-335.003082	75.642517	305.695801	-252.683105	573.718628	19.346348	-232.394684	444.565948	80.064148	-251.548218	287.820160	33.987049	-279.902740	63.694347	104.207237	-330.740875	38.140842	158.539536	-163.851669	45.109272	136.192871
